<svg width="208" height="125" viewBox="0 0 208 125" fill="none" xmlns="http://www.w3.org/2000/svg">
<path d="M28.2813 1.37499C28.4479 1.54166 28.4896 2.37499 28.4063 3.87499C28.3646 5.33332 28.2188 7.20832 27.9688 9.49999C27.7188 11.7917 27.4063 14.3958 27.0313 17.3125C26.6979 20.2292 26.3229 23.1875 25.9063 26.1875C25.4896 29.1875 25.0521 32.125 24.5938 35C24.1771 37.8333 23.7604 40.375 23.3438 42.625C22.9688 44.8333 22.6146 46.625 22.2813 48C21.9896 49.3333 21.7604 50 21.5938 50C21.3021 50 20.9688 49.8333 20.5938 49.5C20.2188 49.1667 19.8438 48.75 19.4688 48.25C19.1354 47.7917 18.8229 47.3333 18.5313 46.875C18.2813 46.375 18.1354 45.9792 18.0938 45.6875C17.9688 45.1458 17.7188 44.1042 17.3438 42.5625C17.0104 41.0208 16.6771 39.1042 16.3438 36.8125C16.1354 35.3125 15.9271 33.7292 15.7188 32.0625C15.5104 30.6458 15.2813 29.1042 15.0313 27.4375C14.8229 25.7292 14.6146 24.0208 14.4063 22.3125C14.2396 23.3958 14.0313 24.6875 13.7813 26.1875C13.5313 27.6875 13.2813 29.125 13.0313 30.5C12.7396 32.125 12.4271 33.7708 12.0938 35.4375C11.8021 37.1875 11.4896 38.9167 11.1563 40.625C10.8229 42.2917 10.4896 43.8125 10.1563 45.1875C9.82292 46.5208 9.51042 47.6042 9.21875 48.4375C8.96875 49.2708 8.76042 49.7083 8.59375 49.75C8.30209 49.8333 7.94792 49.7292 7.53125 49.4375C7.11459 49.1875 6.69792 48.8333 6.28125 48.375C5.86459 47.9167 5.48959 47.4375 5.15625 46.9375C4.86459 46.3958 4.67709 45.9375 4.59375 45.5625C4.01042 41.4792 3.51042 37.8125 3.09375 34.5625C2.71875 31.3125 2.38542 28.4375 2.09375 25.9375C1.80209 23.3958 1.57292 21.2083 1.40625 19.375C1.23959 17.5417 1.09375 15.9583 0.968752 14.625C0.718752 11.5417 0.614586 9.39582 0.656252 8.18749C0.781252 7.31249 1.11459 6.43749 1.65625 5.56249C2.19792 4.64582 2.80209 3.83332 3.46875 3.12499C4.13542 2.41666 4.76042 1.87499 5.34375 1.49999C5.96875 1.08332 6.38542 0.937489 6.59375 1.06249C6.71875 1.14582 6.84375 1.70832 6.96875 2.74999C7.09375 3.74999 7.19792 5.08332 7.28125 6.74999C7.36459 8.37499 7.44792 10.25 7.53125 12.375C7.61459 14.5 7.67709 16.7292 7.71875 19.0625C7.80209 21.3542 7.86459 23.6667 7.90625 26C7.98959 28.3333 8.07292 30.5208 8.15625 32.5625C8.32292 31.5208 8.48959 30.3333 8.65625 29C8.86459 27.6667 9.07292 26.2708 9.28125 24.8125C9.53125 23.3542 9.76042 21.9167 9.96875 20.5C10.1771 19.0417 10.3646 17.7083 10.5313 16.5C10.7396 15.2917 10.9271 14.25 11.0938 13.375C11.3021 12.5 11.4688 11.8958 11.5938 11.5625C12.0104 10.6042 12.4896 9.77082 13.0313 9.06249C13.6146 8.35416 14.1563 7.77082 14.6563 7.31249C15.1979 6.85416 15.6771 6.52082 16.0938 6.31249C16.5521 6.06249 16.8646 5.95832 17.0313 5.99999C17.0729 5.99999 17.1563 6.43749 17.2813 7.31249C17.4063 8.14582 17.5313 9.24999 17.6563 10.625C17.8229 12 17.9896 13.5833 18.1563 15.375C18.3646 17.125 18.5729 18.9583 18.7813 20.875C18.9896 22.75 19.1979 24.625 19.4063 26.5C19.6146 28.3333 19.8438 30 20.0938 31.5C20.1771 30.125 20.2604 28.6042 20.3438 26.9375C20.4271 25.2292 20.5104 23.5 20.5938 21.75C20.7188 20 20.8229 18.2917 20.9063 16.625C21.0313 14.9583 21.1354 13.4375 21.2188 12.0625C21.3438 10.6875 21.4479 9.52082 21.5313 8.56249C21.6563 7.56249 21.7813 6.89582 21.9063 6.56249C22.1563 5.72916 22.5938 4.95832 23.2188 4.24999C23.8438 3.49999 24.4896 2.89582 25.1563 2.43749C25.8646 1.93749 26.5104 1.60416 27.0938 1.43749C27.7188 1.22916 28.1146 1.20832 28.2813 1.37499Z" fill="url(#paint0_linear_758_1400)"/>
<path d="M46.9063 15.125C47.1563 15.4167 47.3854 15.7292 47.5938 16.0625C47.8021 16.3542 47.9896 16.7708 48.1563 17.3125C48.3229 17.8125 48.4479 18.4792 48.5313 19.3125C48.6563 20.1458 48.7188 21.2292 48.7188 22.5625C48.7188 24.6875 48.6563 26.8333 48.5313 29C48.4479 31.125 48.3646 33 48.2813 34.625C48.2396 36.0833 48.1979 37.4375 48.1563 38.6875C48.1146 39.9375 48.0729 41.0417 48.0313 42C47.9896 42.9167 47.9271 43.6458 47.8438 44.1875C47.8021 44.7292 47.7604 45.0208 47.7188 45.0625C47.5521 45.1875 47.2813 45.1458 46.9063 44.9375C46.5729 44.6875 46.1979 44.375 45.7813 44C45.4063 43.625 45.0521 43.2292 44.7188 42.8125C44.3854 42.3958 44.1771 42.0625 44.0938 41.8125C44.0938 41.6042 44.0313 41 43.9063 40C42.9063 40.5833 41.8021 41 40.5938 41.25C39.3854 41.4583 38.1771 41.5417 36.9688 41.5C35.8021 41.4167 34.7188 41.1875 33.7188 40.8125C32.7188 40.4375 31.9688 39.9375 31.4688 39.3125C31.2604 39.0625 31.0729 38.6875 30.9063 38.1875C30.7813 37.6875 30.6563 37.125 30.5313 36.5C30.4479 35.8333 30.3646 35.1458 30.2813 34.4375C30.1979 33.6875 30.1354 33 30.0938 32.375C30.0104 30.75 30.2188 29.3542 30.7188 28.1875C31.2188 26.9792 32.1354 26.0833 33.4688 25.5C34.0521 25.25 34.8229 25.125 35.7813 25.125C36.7813 25.0833 37.7604 25.125 38.7188 25.25C39.7188 25.3333 40.6146 25.4583 41.4063 25.625C42.1979 25.75 42.6979 25.8542 42.9063 25.9375C42.7396 23.8125 42.6146 21.9792 42.5313 20.4375C42.4479 18.8542 42.2813 17.8333 42.0313 17.375C41.8229 17.0833 41.5729 16.7917 41.2813 16.5C41.0313 16.2917 40.6979 16.0625 40.2813 15.8125C39.8646 15.5625 39.3646 15.375 38.7813 15.25C38.3229 15.1667 37.9063 15.3542 37.5313 15.8125C37.1979 16.2292 36.8854 16.9792 36.5938 18.0625C36.3438 19.1042 36.1979 20.7083 36.1563 22.875C34.6979 22.9167 33.5729 22.9167 32.7813 22.875C32.0313 22.7917 31.4688 22.7083 31.0938 22.625C30.6354 22.5417 30.3646 22.4375 30.2813 22.3125C30.1979 22.1458 30.2396 21.5417 30.4063 20.5C30.5729 19.4167 30.8021 18.25 31.0938 17C31.4271 15.75 31.8021 14.5625 32.2188 13.4375C32.6771 12.3125 33.1563 11.6042 33.6563 11.3125C34.6563 10.7292 35.8438 10.5208 37.2188 10.6875C38.6354 10.8542 40.0104 11.2083 41.3438 11.75C42.6771 12.2917 43.8646 12.8958 44.9063 13.5625C45.9479 14.2292 46.6146 14.75 46.9063 15.125ZM43.0313 33.375C43.0313 33.1667 43.0521 32.8958 43.0938 32.5625C43.1354 32.1875 43.1563 31.8125 43.1563 31.4375C43.1563 31.0625 43.1354 30.7083 43.0938 30.375C43.0938 30.0417 43.0521 29.7917 42.9688 29.625C42.8438 29.375 42.4688 29.1667 41.8438 29C41.2604 28.8333 40.5938 28.7292 39.8438 28.6875C39.0938 28.6042 38.3854 28.5833 37.7188 28.625C37.0521 28.625 36.5938 28.7083 36.3438 28.875C36.0104 29.0833 35.7604 29.375 35.5938 29.75C35.4688 30.125 35.3854 30.7083 35.3438 31.5C35.3438 31.875 35.3646 32.2708 35.4063 32.6875C35.4479 33.1042 35.4896 33.5208 35.5313 33.9375C35.6146 34.3125 35.6979 34.6458 35.7813 34.9375C35.9063 35.2292 36.0313 35.4167 36.1563 35.5C36.4479 35.7083 36.9479 35.8958 37.6563 36.0625C38.4063 36.1875 39.1563 36.2292 39.9063 36.1875C40.6563 36.1042 41.3438 35.8542 41.9688 35.4375C42.5938 35.0208 42.9479 34.3333 43.0313 33.375Z" fill="url(#paint1_linear_758_1400)"/>
<path d="M68.4688 50C68.3854 50.25 68.1354 50.6458 67.7188 51.1875C67.3021 51.7292 66.8021 52.2917 66.2188 52.875C65.6354 53.4583 65.0521 53.9792 64.4688 54.4375C63.8854 54.8958 63.4063 55.1875 63.0313 55.3125C62.1979 55.5625 61.3021 55.5 60.3438 55.125C59.4271 54.7917 58.5313 54.3333 57.6563 53.75C56.8229 53.1667 56.0938 52.5625 55.4688 51.9375C54.8438 51.3542 54.4479 50.9167 54.2813 50.625C54.1563 50.3333 54.0313 49.9375 53.9063 49.4375C53.8229 48.9375 53.7604 48.4375 53.7188 47.9375C53.6771 47.4375 53.6771 47.0208 53.7188 46.6875C53.8021 46.3125 53.9479 46.125 54.1563 46.125C54.3646 46.125 54.8438 46.3333 55.5938 46.75C56.3854 47.125 57.1979 47.5208 58.0313 47.9375C58.9063 48.3542 59.7188 48.6875 60.4688 48.9375C61.2188 49.1875 61.6771 49.1458 61.8438 48.8125C62.0104 48.5208 62.1563 47.7083 62.2813 46.375C62.4479 45 62.6354 43.3333 62.8438 41.375C62.7604 41.375 62.6771 41.3958 62.5938 41.4375C62.5521 41.4375 62.4896 41.4375 62.4063 41.4375C62.0313 41.5625 61.5104 41.625 60.8438 41.625C60.1771 41.625 59.4688 41.5833 58.7188 41.5C58.0104 41.4167 57.3021 41.2708 56.5938 41.0625C55.9271 40.8125 55.3854 40.5 54.9688 40.125C54.8021 39.9583 54.6146 39.7083 54.4063 39.375C54.2396 39 54.1146 38.5208 54.0313 37.9375C53.9063 37.6875 53.6979 36.9792 53.4063 35.8125C53.1146 34.6042 52.8229 33.25 52.5313 31.75C52.2396 30.2083 51.9688 28.6667 51.7188 27.125C51.5104 25.5833 51.4479 24.3542 51.5313 23.4375C51.5729 22.5208 51.7396 21.5833 52.0313 20.625C52.3229 19.625 52.6563 18.6875 53.0313 17.8125C53.4479 16.9375 53.8854 16.1875 54.3438 15.5625C54.8021 14.8958 55.2604 14.4375 55.7188 14.1875C56.7188 13.6875 57.9688 13.5833 59.4688 13.875C60.9688 14.1667 62.5729 14.7292 64.2813 15.5625C64.3229 15.1458 64.5104 14.6875 64.8438 14.1875C65.1771 13.6875 65.5521 13.25 65.9688 12.875C66.4271 12.4583 66.8854 12.1667 67.3438 12C67.8021 11.7917 68.1562 11.7708 68.4062 11.9375C68.5312 12.0208 68.6354 12.6042 68.7188 13.6875C68.8021 14.7292 68.8646 16.1042 68.9062 17.8125C68.9896 19.4792 69.0312 21.3958 69.0312 23.5625C69.0729 25.6875 69.0729 27.8958 69.0312 30.1875C69.0312 32.4375 69.0104 34.6667 68.9688 36.875C68.9688 39.0833 68.9271 41.1042 68.8438 42.9375C68.8021 44.7708 68.7396 46.3125 68.6562 47.5625C68.6146 48.8125 68.5521 49.625 68.4688 50ZM64.0938 20.3125C63.8438 20.1458 63.5521 19.9792 63.2188 19.8125C62.9271 19.6458 62.5938 19.4792 62.2188 19.3125C61.8438 19.1458 61.4271 19 60.9688 18.875C60.7604 18.7917 60.4688 18.875 60.0938 19.125C59.7604 19.375 59.4063 19.7292 59.0313 20.1875C58.6979 20.6458 58.4063 21.2083 58.1563 21.875C57.9063 22.5 57.7813 23.1667 57.7813 23.875C57.7813 23.9583 57.8021 24.3542 57.8438 25.0625C57.8854 25.7708 57.9479 26.625 58.0313 27.625C58.1146 28.625 58.1979 29.7083 58.2813 30.875C58.3646 32.0417 58.4479 33.125 58.5313 34.125C58.6563 35.125 58.7604 35.9792 58.8438 36.6875C58.9271 37.3542 58.9896 37.7083 59.0313 37.75C59.1979 37.9167 59.4271 38 59.7188 38C60.0521 38 60.3646 37.9583 60.6563 37.875C60.9896 37.7917 61.2813 37.6875 61.5313 37.5625C61.7813 37.4375 61.9688 37.3333 62.0938 37.25C62.6354 36.875 62.9688 36.1458 63.0938 35.0625C63.1771 34.9792 63.2188 34.75 63.2188 34.375C63.3438 31.625 63.4688 29.1458 63.5938 26.9375C63.7188 24.6875 63.8854 22.4792 64.0938 20.3125Z" fill="url(#paint2_linear_758_1400)"/>
<path d="M77.5312 29.9375C78.1979 29.6875 78.9479 29.4167 79.7812 29.125C80.6562 28.7917 81.4896 28.5 82.2812 28.25C83.0729 27.9583 83.7812 27.7083 84.4062 27.5C85.0312 27.2917 85.4896 27.125 85.7812 27C85.7396 26.5417 85.6771 26.0208 85.5938 25.4375C85.5521 24.8125 85.4896 24.2292 85.4062 23.6875C85.3229 23.1042 85.2188 22.6042 85.0938 22.1875C84.9688 21.7708 84.8438 21.5208 84.7188 21.4375C84.3854 21.3125 83.8229 21.2083 83.0312 21.125C82.2812 21 81.4896 21.0208 80.6562 21.1875C79.8646 21.3542 79.1354 21.6667 78.4688 22.125C77.8021 22.5833 77.4271 23.3125 77.3438 24.3125C77.2604 24.9792 77.2396 25.8125 77.2812 26.8125C77.3229 27.8125 77.4062 28.8542 77.5312 29.9375ZM91.0938 30.9375C91.0521 31.0208 90.5521 31.1875 89.5938 31.4375C88.6354 31.6875 87.4896 31.9583 86.1562 32.25C84.8229 32.5 83.4062 32.7708 81.9062 33.0625C80.4062 33.3125 79.1146 33.5208 78.0312 33.6875C78.2396 35.3542 78.4896 36.8542 78.7812 38.1875C79.0729 39.4792 79.3229 40.2917 79.5312 40.625C79.7396 40.9167 80.0104 41.1875 80.3438 41.4375C80.6354 41.6458 80.9896 41.8542 81.4062 42.0625C81.8646 42.2292 82.4062 42.3542 83.0312 42.4375C83.4896 42.5625 83.9271 42.3958 84.3438 41.9375C84.6771 41.5208 84.9688 40.7917 85.2188 39.75C85.5104 38.7083 85.6562 37.0625 85.6562 34.8125C86.9479 34.6042 87.9479 34.4792 88.6562 34.4375C89.4062 34.3958 89.9479 34.3958 90.2812 34.4375C90.6979 34.4792 90.9479 34.5417 91.0312 34.625C91.0729 34.75 91.0729 35.0625 91.0312 35.5625C90.9896 36.0625 90.8854 36.6875 90.7188 37.4375C90.5938 38.1458 90.4271 38.9375 90.2188 39.8125C90.0521 40.6458 89.8438 41.4583 89.5938 42.25C89.3438 43 89.0729 43.6875 88.7812 44.3125C88.4896 44.8958 88.1771 45.3125 87.8438 45.5625C86.8438 46.3125 85.5938 46.6875 84.0938 46.6875C82.5938 46.6458 81.1146 46.4375 79.6562 46.0625C78.1979 45.6458 76.8854 45.1667 75.7188 44.625C74.5521 44.0417 73.8229 43.5625 73.5312 43.1875C73.3229 42.9375 73.1354 42.3125 72.9688 41.3125C72.8021 40.2708 72.6562 39.0208 72.5312 37.5625C72.4479 36.1042 72.3854 34.5 72.3438 32.75C72.3021 31 72.3229 29.2917 72.4062 27.625C72.5312 25.9583 72.6979 24.4167 72.9062 23C73.1562 21.5833 73.4896 20.4375 73.9062 19.5625C74.5312 18.3125 75.5521 17.2917 76.9688 16.5C78.3854 15.7083 79.8854 15.1667 81.4688 14.875C83.0521 14.5833 84.5521 14.5417 85.9688 14.75C87.4271 14.9583 88.5104 15.4167 89.2188 16.125C89.6354 16.5417 90.0104 17.375 90.3438 18.625C90.6771 19.8333 90.8854 21.3125 90.9688 23.0625C90.9688 23.2292 90.9896 23.7083 91.0312 24.5C91.0729 25.2917 91.0938 26.1458 91.0938 27.0625C91.1354 27.9375 91.1562 28.7708 91.1562 29.5625C91.1562 30.3542 91.1354 30.8125 91.0938 30.9375Z" fill="url(#paint3_linear_758_1400)"/>
<path d="M120.969 1.37499C121.135 1.54166 121.177 2.37499 121.094 3.87499C121.052 5.33332 120.906 7.20832 120.656 9.49999C120.406 11.7917 120.094 14.3958 119.719 17.3125C119.385 20.2292 119.01 23.1875 118.594 26.1875C118.177 29.1875 117.74 32.125 117.281 35C116.865 37.8333 116.448 40.375 116.031 42.625C115.656 44.8333 115.302 46.625 114.969 48C114.677 49.3333 114.448 50 114.281 50C113.99 50 113.656 49.8333 113.281 49.5C112.906 49.1667 112.531 48.75 112.156 48.25C111.823 47.7917 111.51 47.3333 111.219 46.875C110.969 46.375 110.823 45.9792 110.781 45.6875C110.656 45.1458 110.406 44.1042 110.031 42.5625C109.698 41.0208 109.365 39.1042 109.031 36.8125C108.823 35.3125 108.615 33.7292 108.406 32.0625C108.198 30.6458 107.969 29.1042 107.719 27.4375C107.51 25.7292 107.302 24.0208 107.094 22.3125C106.927 23.3958 106.719 24.6875 106.469 26.1875C106.219 27.6875 105.969 29.125 105.719 30.5C105.427 32.125 105.115 33.7708 104.781 35.4375C104.49 37.1875 104.177 38.9167 103.844 40.625C103.51 42.2917 103.177 43.8125 102.844 45.1875C102.51 46.5208 102.198 47.6042 101.906 48.4375C101.656 49.2708 101.448 49.7083 101.281 49.75C100.99 49.8333 100.635 49.7292 100.219 49.4375C99.8021 49.1875 99.3854 48.8333 98.9688 48.375C98.5521 47.9167 98.1771 47.4375 97.8438 46.9375C97.5521 46.3958 97.3646 45.9375 97.2812 45.5625C96.6979 41.4792 96.1979 37.8125 95.7812 34.5625C95.4062 31.3125 95.0729 28.4375 94.7812 25.9375C94.4896 23.3958 94.2604 21.2083 94.0938 19.375C93.9271 17.5417 93.7812 15.9583 93.6562 14.625C93.4062 11.5417 93.3021 9.39582 93.3438 8.18749C93.4688 7.31249 93.8021 6.43749 94.3438 5.56249C94.8854 4.64582 95.4896 3.83332 96.1562 3.12499C96.8229 2.41666 97.4479 1.87499 98.0312 1.49999C98.6562 1.08332 99.0729 0.937489 99.2812 1.06249C99.4062 1.14582 99.5312 1.70832 99.6562 2.74999C99.7812 3.74999 99.8854 5.08332 99.9688 6.74999C100.052 8.37499 100.135 10.25 100.219 12.375C100.302 14.5 100.365 16.7292 100.406 19.0625C100.49 21.3542 100.552 23.6667 100.594 26C100.677 28.3333 100.76 30.5208 100.844 32.5625C101.01 31.5208 101.177 30.3333 101.344 29C101.552 27.6667 101.76 26.2708 101.969 24.8125C102.219 23.3542 102.448 21.9167 102.656 20.5C102.865 19.0417 103.052 17.7083 103.219 16.5C103.427 15.2917 103.615 14.25 103.781 13.375C103.99 12.5 104.156 11.8958 104.281 11.5625C104.698 10.6042 105.177 9.77082 105.719 9.06249C106.302 8.35416 106.844 7.77082 107.344 7.31249C107.885 6.85416 108.365 6.52082 108.781 6.31249C109.24 6.06249 109.552 5.95832 109.719 5.99999C109.76 5.99999 109.844 6.43749 109.969 7.31249C110.094 8.14582 110.219 9.24999 110.344 10.625C110.51 12 110.677 13.5833 110.844 15.375C111.052 17.125 111.26 18.9583 111.469 20.875C111.677 22.75 111.885 24.625 112.094 26.5C112.302 28.3333 112.531 30 112.781 31.5C112.865 30.125 112.948 28.6042 113.031 26.9375C113.115 25.2292 113.198 23.5 113.281 21.75C113.406 20 113.51 18.2917 113.594 16.625C113.719 14.9583 113.823 13.4375 113.906 12.0625C114.031 10.6875 114.135 9.52082 114.219 8.56249C114.344 7.56249 114.469 6.89582 114.594 6.56249C114.844 5.72916 115.281 4.95832 115.906 4.24999C116.531 3.49999 117.177 2.89582 117.844 2.43749C118.552 1.93749 119.198 1.60416 119.781 1.43749C120.406 1.22916 120.802 1.20832 120.969 1.37499Z" fill="url(#paint4_linear_758_1400)"/>
<path d="M129.656 21.125C129.74 21.3333 129.781 22 129.781 23.125C129.823 24.2083 129.823 25.5417 129.781 27.125C129.781 28.6667 129.74 30.3333 129.656 32.125C129.573 33.875 129.469 35.5417 129.344 37.125C129.26 38.6667 129.156 40 129.031 41.125C128.906 42.2083 128.781 42.8542 128.656 43.0625C128.281 43.6458 127.719 44.0208 126.969 44.1875C126.219 44.3125 125.677 44.3333 125.344 44.25C125.177 44.25 124.99 43.7708 124.781 42.8125C124.615 41.8542 124.448 40.6458 124.281 39.1875C124.115 37.7292 123.969 36.1458 123.844 34.4375C123.719 32.7292 123.615 31.1042 123.531 29.5625C123.448 27.9792 123.406 26.6042 123.406 25.4375C123.406 24.2708 123.448 23.5208 123.531 23.1875C123.656 22.6458 124.01 22.1667 124.594 21.75C125.219 21.3333 125.865 21.0208 126.531 20.8125C127.24 20.6042 127.885 20.5208 128.469 20.5625C129.094 20.5625 129.49 20.75 129.656 21.125ZM129.969 11C130.135 11.3333 130.198 11.7917 130.156 12.375C130.156 12.9583 130.094 13.5625 129.969 14.1875C129.844 14.8125 129.677 15.4167 129.469 16C129.26 16.5833 129.052 17.0417 128.844 17.375C128.427 17.9583 127.802 18.3333 126.969 18.5C126.177 18.625 125.594 18.6458 125.219 18.5625C124.927 18.5208 124.635 18.3333 124.344 18C124.052 17.625 123.802 17.1875 123.594 16.6875C123.385 16.1458 123.24 15.5625 123.156 14.9375C123.073 14.3125 123.094 13.7292 123.219 13.1875C123.344 12.6458 123.74 12.1667 124.406 11.75C125.073 11.2917 125.781 10.9583 126.531 10.75C127.281 10.5 127.99 10.3958 128.656 10.4375C129.323 10.4375 129.76 10.625 129.969 11Z" fill="url(#paint5_linear_758_1400)"/>
<path d="M148.094 9.81249C148.094 9.97916 147.865 10.6458 147.406 11.8125C146.948 12.9792 146.365 14.4167 145.656 16.125C144.948 17.8333 144.156 19.7083 143.281 21.75C142.406 23.75 141.573 25.6667 140.781 27.5C140.031 29.3333 139.365 30.9375 138.781 32.3125C138.198 33.6875 137.823 34.6042 137.656 35.0625C138.615 34.9375 139.573 34.8333 140.531 34.75C141.49 34.625 142.344 34.5417 143.094 34.5C143.885 34.4167 144.531 34.375 145.031 34.375C145.531 34.3333 145.802 34.3333 145.844 34.375C145.969 34.5417 145.969 34.8958 145.844 35.4375C145.719 35.9375 145.531 36.5 145.281 37.125C145.031 37.75 144.74 38.3542 144.406 38.9375C144.115 39.5208 143.865 39.9375 143.656 40.1875C143.573 40.3125 143.115 40.4167 142.281 40.5C141.49 40.5833 140.594 40.6458 139.594 40.6875C138.594 40.7292 137.635 40.75 136.719 40.75C135.802 40.75 135.219 40.7292 134.969 40.6875C134.51 40.6042 134.073 40.1667 133.656 39.375C133.281 38.5833 133.052 37.8333 132.969 37.125C132.927 36.7917 133.031 36.125 133.281 35.125C133.573 34.125 133.948 32.9583 134.406 31.625C134.865 30.25 135.385 28.7917 135.969 27.25C136.594 25.6667 137.177 24.125 137.719 22.625C138.302 21.125 138.823 19.75 139.281 18.5C139.74 17.2083 140.094 16.1667 140.344 15.375C138.635 15.5 137.323 15.6042 136.406 15.6875C135.49 15.7708 134.802 15.8333 134.344 15.875C133.927 15.9167 133.656 15.9375 133.531 15.9375C133.406 15.8958 133.323 15.8333 133.281 15.75C133.115 15.5 132.948 15.0417 132.781 14.375C132.656 13.7083 132.552 13 132.469 12.25C132.427 11.5 132.406 10.8125 132.406 10.1875C132.448 9.52082 132.552 9.08332 132.719 8.87499C132.802 8.74999 133.24 8.64582 134.031 8.56249C134.823 8.47916 135.781 8.41666 136.906 8.37499C138.073 8.33332 139.302 8.33332 140.594 8.37499C141.885 8.37499 143.073 8.43749 144.156 8.56249C145.281 8.64582 146.198 8.79166 146.906 8.99999C147.656 9.20832 148.052 9.47916 148.094 9.81249Z" fill="url(#paint6_linear_758_1400)"/>
<path d="M164.906 15.125C165.156 15.4167 165.385 15.7292 165.594 16.0625C165.802 16.3542 165.99 16.7708 166.156 17.3125C166.323 17.8125 166.448 18.4792 166.531 19.3125C166.656 20.1458 166.719 21.2292 166.719 22.5625C166.719 24.6875 166.656 26.8333 166.531 29C166.448 31.125 166.365 33 166.281 34.625C166.24 36.0833 166.198 37.4375 166.156 38.6875C166.115 39.9375 166.073 41.0417 166.031 42C165.99 42.9167 165.927 43.6458 165.844 44.1875C165.802 44.7292 165.76 45.0208 165.719 45.0625C165.552 45.1875 165.281 45.1458 164.906 44.9375C164.573 44.6875 164.198 44.375 163.781 44C163.406 43.625 163.052 43.2292 162.719 42.8125C162.385 42.3958 162.177 42.0625 162.094 41.8125C162.094 41.6042 162.031 41 161.906 40C160.906 40.5833 159.802 41 158.594 41.25C157.385 41.4583 156.177 41.5417 154.969 41.5C153.802 41.4167 152.719 41.1875 151.719 40.8125C150.719 40.4375 149.969 39.9375 149.469 39.3125C149.26 39.0625 149.073 38.6875 148.906 38.1875C148.781 37.6875 148.656 37.125 148.531 36.5C148.448 35.8333 148.365 35.1458 148.281 34.4375C148.198 33.6875 148.135 33 148.094 32.375C148.01 30.75 148.219 29.3542 148.719 28.1875C149.219 26.9792 150.135 26.0833 151.469 25.5C152.052 25.25 152.823 25.125 153.781 25.125C154.781 25.0833 155.76 25.125 156.719 25.25C157.719 25.3333 158.615 25.4583 159.406 25.625C160.198 25.75 160.698 25.8542 160.906 25.9375C160.74 23.8125 160.615 21.9792 160.531 20.4375C160.448 18.8542 160.281 17.8333 160.031 17.375C159.823 17.0833 159.573 16.7917 159.281 16.5C159.031 16.2917 158.698 16.0625 158.281 15.8125C157.865 15.5625 157.365 15.375 156.781 15.25C156.323 15.1667 155.906 15.3542 155.531 15.8125C155.198 16.2292 154.885 16.9792 154.594 18.0625C154.344 19.1042 154.198 20.7083 154.156 22.875C152.698 22.9167 151.573 22.9167 150.781 22.875C150.031 22.7917 149.469 22.7083 149.094 22.625C148.635 22.5417 148.365 22.4375 148.281 22.3125C148.198 22.1458 148.24 21.5417 148.406 20.5C148.573 19.4167 148.802 18.25 149.094 17C149.427 15.75 149.802 14.5625 150.219 13.4375C150.677 12.3125 151.156 11.6042 151.656 11.3125C152.656 10.7292 153.844 10.5208 155.219 10.6875C156.635 10.8542 158.01 11.2083 159.344 11.75C160.677 12.2917 161.865 12.8958 162.906 13.5625C163.948 14.2292 164.615 14.75 164.906 15.125ZM161.031 33.375C161.031 33.1667 161.052 32.8958 161.094 32.5625C161.135 32.1875 161.156 31.8125 161.156 31.4375C161.156 31.0625 161.135 30.7083 161.094 30.375C161.094 30.0417 161.052 29.7917 160.969 29.625C160.844 29.375 160.469 29.1667 159.844 29C159.26 28.8333 158.594 28.7292 157.844 28.6875C157.094 28.6042 156.385 28.5833 155.719 28.625C155.052 28.625 154.594 28.7083 154.344 28.875C154.01 29.0833 153.76 29.375 153.594 29.75C153.469 30.125 153.385 30.7083 153.344 31.5C153.344 31.875 153.365 32.2708 153.406 32.6875C153.448 33.1042 153.49 33.5208 153.531 33.9375C153.615 34.3125 153.698 34.6458 153.781 34.9375C153.906 35.2292 154.031 35.4167 154.156 35.5C154.448 35.7083 154.948 35.8958 155.656 36.0625C156.406 36.1875 157.156 36.2292 157.906 36.1875C158.656 36.1042 159.344 35.8542 159.969 35.4375C160.594 35.0208 160.948 34.3333 161.031 33.375Z" fill="url(#paint7_linear_758_1400)"/>
<path d="M184.281 13.9375C184.615 14.1458 184.927 14.5625 185.219 15.1875C185.552 15.7708 185.844 16.4583 186.094 17.25C186.385 18 186.615 18.8125 186.781 19.6875C186.99 20.5625 187.156 21.375 187.281 22.125C187.448 22.875 187.552 23.5208 187.594 24.0625C187.635 24.5625 187.635 24.875 187.594 25C187.51 25.1667 187.26 25.3333 186.844 25.5C186.469 25.6667 185.906 25.8542 185.156 26.0625C184.406 26.2708 183.365 26.5 182.031 26.75C181.948 24.4583 181.781 22.7292 181.531 21.5625C181.281 20.3542 181.01 19.5 180.719 19C180.385 18.4167 180.031 18.125 179.656 18.125C179.281 18.2917 178.948 18.5 178.656 18.75C178.365 18.9583 178.115 19.1875 177.906 19.4375C177.656 19.7292 177.427 20.0417 177.219 20.375C177.135 20.5 177.052 20.7917 176.969 21.25C176.885 21.7083 176.802 22.3958 176.719 23.3125C176.719 23.6042 176.698 24.2083 176.656 25.125C176.656 26.0417 176.635 27.1042 176.594 28.3125C176.594 29.5208 176.573 30.7917 176.531 32.125C176.531 33.4583 176.51 34.7083 176.469 35.875C176.469 37 176.448 37.9583 176.406 38.75C176.406 39.5417 176.385 40 176.344 40.125C176.26 40.3333 176.052 40.625 175.719 41C175.385 41.375 175.01 41.7292 174.594 42.0625C174.177 42.3542 173.781 42.6042 173.406 42.8125C173.031 42.9792 172.781 42.9583 172.656 42.75C172.531 42.625 172.406 42.0833 172.281 41.125C172.156 40.1667 172.01 39 171.844 37.625C171.719 36.2083 171.573 34.6667 171.406 33C171.24 31.3333 171.094 29.7292 170.969 28.1875C170.844 26.6458 170.74 25.2708 170.656 24.0625C170.573 22.8125 170.51 21.9167 170.469 21.375C170.427 20.5833 170.385 19.7083 170.344 18.75C170.302 17.7917 170.26 16.8958 170.219 16.0625C170.219 15.1875 170.219 14.4375 170.219 13.8125C170.26 13.1458 170.344 12.75 170.469 12.625C170.552 12.5 170.823 12.4792 171.281 12.5625C171.781 12.6042 172.302 12.7292 172.844 12.9375C173.427 13.1042 173.969 13.3333 174.469 13.625C174.969 13.9167 175.302 14.1875 175.469 14.4375C175.594 14.6458 175.719 14.9583 175.844 15.375C176.635 14.9583 177.385 14.5833 178.094 14.25C178.844 13.875 179.552 13.6042 180.219 13.4375C180.927 13.2708 181.615 13.2292 182.281 13.3125C182.948 13.3542 183.615 13.5625 184.281 13.9375Z" fill="url(#paint8_linear_758_1400)"/>
<path d="M207.219 6.62499C207.344 7.62499 207.385 9.62499 207.344 12.625C207.344 13.9167 207.302 15.4792 207.219 17.3125C207.177 19.1458 207.094 21.3542 206.969 23.9375C206.844 26.4792 206.677 29.4375 206.469 32.8125C206.302 36.1458 206.073 39.9375 205.781 44.1875C205.698 44.6042 205.51 45.0625 205.219 45.5625C204.969 46.0625 204.677 46.5208 204.344 46.9375C204.01 47.3542 203.656 47.7083 203.281 48C202.906 48.25 202.573 48.3333 202.281 48.25C202.198 48.2083 202.094 47.875 201.969 47.25C201.885 46.625 201.802 45.75 201.719 44.625C199.844 45.4583 198.073 46.0208 196.406 46.3125C194.74 46.6042 193.385 46.4167 192.344 45.75C191.927 45.5 191.51 45.0625 191.094 44.4375C190.719 43.7708 190.365 43 190.031 42.125C189.698 41.25 189.427 40.3333 189.219 39.375C189.01 38.375 188.906 37.4375 188.906 36.5625C188.906 35.9375 188.948 35.1042 189.031 34.0625C189.115 33.0208 189.219 31.8958 189.344 30.6875C189.469 29.4375 189.615 28.1875 189.781 26.9375C189.948 25.6458 190.115 24.4583 190.281 23.375C190.448 22.2917 190.594 21.375 190.719 20.625C190.844 19.875 190.948 19.4167 191.031 19.25C191.115 18.75 191.26 18.3333 191.469 18C191.719 17.6667 191.927 17.4167 192.094 17.25C192.51 16.9167 193.115 16.6667 193.906 16.5C194.74 16.3333 195.594 16.2292 196.469 16.1875C197.385 16.1458 198.24 16.1667 199.031 16.25C199.823 16.2917 200.406 16.375 200.781 16.5H200.906C200.823 11.3333 200.823 7.35416 200.906 4.56249C200.99 1.77082 201.156 0.270822 201.406 0.0624889C201.573 -0.0625111 201.948 0.0416556 202.531 0.374989C203.115 0.708322 203.719 1.18749 204.344 1.81249C205.01 2.43749 205.615 3.18749 206.156 4.06249C206.74 4.89582 207.094 5.74999 207.219 6.62499ZM197.719 41.625C198.302 41.5 198.823 41.3542 199.281 41.1875C199.781 40.9792 200.198 40.7917 200.531 40.625C200.906 40.4583 201.219 40.25 201.469 40C201.427 38.9167 201.385 37.7083 201.344 36.375C201.302 35 201.26 33.5833 201.219 32.125C201.177 30.6667 201.135 29.1875 201.094 27.6875C201.052 26.1458 201.01 24.6667 200.969 23.25C200.969 22.7917 200.885 22.3958 200.719 22.0625C200.594 21.7292 200.427 21.4583 200.219 21.25C200.094 21.1667 199.844 21.0625 199.469 20.9375C199.094 20.7708 198.656 20.6458 198.156 20.5625C197.698 20.4375 197.24 20.375 196.781 20.375C196.365 20.375 196.073 20.4583 195.906 20.625C195.823 20.6667 195.74 21.0833 195.656 21.875C195.615 22.625 195.552 23.5833 195.469 24.75C195.427 25.875 195.365 27.1042 195.281 28.4375C195.24 29.7708 195.198 31.0208 195.156 32.1875C195.115 33.3542 195.073 34.3542 195.031 35.1875C194.99 36.0208 194.969 36.4792 194.969 36.5625C194.969 37.2708 195.052 37.9375 195.219 38.5625C195.427 39.1875 195.677 39.75 195.969 40.25C196.26 40.7083 196.573 41.0833 196.906 41.375C197.24 41.625 197.51 41.7083 197.719 41.625Z" fill="url(#paint9_linear_758_1400)"/>
<path d="M110.915 94.832L116.864 88.2923C117.335 87.7723 117.299 86.9729 116.779 86.5028C116.749 86.476 116.718 86.4509 116.687 86.4275L113.009 83.1017C112.489 82.6315 111.689 82.6675 111.219 83.1875C111.192 83.2172 111.167 83.2478 111.144 83.2791L105.15 89.9085L110.896 94.8137C110.902 94.8197 110.909 94.8258 110.915 94.832Z" fill="url(#paint10_linear_758_1400)"/>
<path d="M90.3467 117.62L110.935 94.8495C110.929 94.8438 110.922 94.8379 110.915 94.8319L105.15 89.9085L84.7137 112.51L90.3467 117.62Z" fill="url(#paint11_linear_758_1400)"/>
<path d="M79.0489 120.836L82.7271 124.162C83.247 124.632 84.0464 124.596 84.5166 124.076C84.5433 124.047 84.5684 124.016 84.5918 123.985L90.3467 117.62L84.7136 112.51L78.8715 118.971C78.4013 119.491 78.4373 120.291 78.9573 120.761C78.9869 120.788 79.0175 120.813 79.0489 120.836Z" fill="url(#paint12_linear_758_1400)"/>
<path d="M106.484 69.5961C106.902 70.3138 107.411 70.9726 107.995 71.5564C108.586 72.1475 109.254 72.6619 109.982 73.0826C109.254 73.5033 108.586 74.0177 107.995 74.6089C107.411 75.1926 106.902 75.8514 106.484 76.5692C106.067 75.8514 105.558 75.1926 104.974 74.6089C104.383 74.0177 103.715 73.5033 102.986 73.0826C103.715 72.6619 104.383 72.1475 104.974 71.5564C105.558 70.9726 106.067 70.3138 106.484 69.5961Z" fill="#414141"/>
<path d="M106.484 81.6867C107.727 77.5007 111.993 73.2568 114.72 73.2568C110.47 71.6289 107.88 68.1594 106.484 64C105.089 68.1594 102.499 71.6289 98.2493 73.2568C100.976 73.2568 105.241 77.5007 106.484 81.6867Z" fill="url(#paint13_radial_758_1400)"/>
<path d="M124.116 75.7326C124.417 76.2499 124.783 76.7246 125.204 77.1453C125.63 77.5714 126.112 77.942 126.637 78.2453C126.112 78.5485 125.63 78.9192 125.204 79.3452C124.783 79.7659 124.417 80.2407 124.116 80.758C123.815 80.2407 123.448 79.7659 123.027 79.3452C122.601 78.9192 122.12 78.5485 121.595 78.2453C122.12 77.942 122.601 77.5714 123.027 77.1453C123.448 76.7246 123.815 76.2499 124.116 75.7326Z" fill="#414141"/>
<path d="M124.116 84.446C125.011 81.4292 128.085 78.3708 130.051 78.3708C126.988 77.1975 125.121 74.6972 124.116 71.6995C123.11 74.6972 121.243 77.1975 118.181 78.3708C120.146 78.3708 123.22 81.4292 124.116 84.446Z" fill="url(#paint14_radial_758_1400)"/>
<path d="M126.882 93.0597C127.091 93.4187 127.345 93.7481 127.637 94.04C127.933 94.3356 128.267 94.5928 128.631 94.8032C128.267 95.0136 127.933 95.2708 127.637 95.5664C127.345 95.8583 127.091 96.1878 126.882 96.5467C126.673 96.1878 126.419 95.8583 126.127 95.5664C125.831 95.2708 125.497 95.0136 125.133 94.8032C125.497 94.5928 125.831 94.3356 126.127 94.04C126.419 93.7481 126.673 93.4187 126.882 93.0597Z" fill="#414141"/>
<path d="M126.882 99.1058C127.503 97.0125 129.636 94.8903 131 94.8903C128.875 94.0763 127.58 92.3413 126.882 90.2613C126.184 92.3413 124.889 94.0763 122.764 94.8903C124.127 94.8903 126.26 97.0125 126.882 99.1058Z" fill="url(#paint15_radial_758_1400)"/>
<defs>
<linearGradient id="paint0_linear_758_1400" x1="104.003" y1="0.0113525" x2="104.003" y2="55.4625" gradientUnits="userSpaceOnUse">
<stop stop-color="#FFDC61"/>
<stop offset="1" stop-color="#C79B00"/>
</linearGradient>
<linearGradient id="paint1_linear_758_1400" x1="104.003" y1="0.0113525" x2="104.003" y2="55.4625" gradientUnits="userSpaceOnUse">
<stop stop-color="#FFDC61"/>
<stop offset="1" stop-color="#C79B00"/>
</linearGradient>
<linearGradient id="paint2_linear_758_1400" x1="104.003" y1="0.0113525" x2="104.003" y2="55.4625" gradientUnits="userSpaceOnUse">
<stop stop-color="#FFDC61"/>
<stop offset="1" stop-color="#C79B00"/>
</linearGradient>
<linearGradient id="paint3_linear_758_1400" x1="104.003" y1="0.0113525" x2="104.003" y2="55.4625" gradientUnits="userSpaceOnUse">
<stop stop-color="#FFDC61"/>
<stop offset="1" stop-color="#C79B00"/>
</linearGradient>
<linearGradient id="paint4_linear_758_1400" x1="104.003" y1="0.0113525" x2="104.003" y2="55.4625" gradientUnits="userSpaceOnUse">
<stop stop-color="#FFDC61"/>
<stop offset="1" stop-color="#C79B00"/>
</linearGradient>
<linearGradient id="paint5_linear_758_1400" x1="104.003" y1="0.0113525" x2="104.003" y2="55.4625" gradientUnits="userSpaceOnUse">
<stop stop-color="#FFDC61"/>
<stop offset="1" stop-color="#C79B00"/>
</linearGradient>
<linearGradient id="paint6_linear_758_1400" x1="104.003" y1="0.0113525" x2="104.003" y2="55.4625" gradientUnits="userSpaceOnUse">
<stop stop-color="#FFDC61"/>
<stop offset="1" stop-color="#C79B00"/>
</linearGradient>
<linearGradient id="paint7_linear_758_1400" x1="104.003" y1="0.0113525" x2="104.003" y2="55.4625" gradientUnits="userSpaceOnUse">
<stop stop-color="#FFDC61"/>
<stop offset="1" stop-color="#C79B00"/>
</linearGradient>
<linearGradient id="paint8_linear_758_1400" x1="104.003" y1="0.0113525" x2="104.003" y2="55.4625" gradientUnits="userSpaceOnUse">
<stop stop-color="#FFDC61"/>
<stop offset="1" stop-color="#C79B00"/>
</linearGradient>
<linearGradient id="paint9_linear_758_1400" x1="104.003" y1="0.0113525" x2="104.003" y2="55.4625" gradientUnits="userSpaceOnUse">
<stop stop-color="#FFDC61"/>
<stop offset="1" stop-color="#C79B00"/>
</linearGradient>
<linearGradient id="paint10_linear_758_1400" x1="108.454" y1="86.1036" x2="114.104" y2="91.4218" gradientUnits="userSpaceOnUse">
<stop stop-color="#FFFEE0"/>
<stop offset="1" stop-color="#EBD09C"/>
</linearGradient>
<linearGradient id="paint11_linear_758_1400" x1="102.139" y1="103.886" x2="96.9866" y2="99.2329" gradientUnits="userSpaceOnUse">
<stop stop-color="#2B2823"/>
<stop offset="1" stop-color="#595E5F"/>
</linearGradient>
<linearGradient id="paint12_linear_758_1400" x1="82.0293" y1="115.686" x2="87.5136" y2="120.339" gradientUnits="userSpaceOnUse">
<stop stop-color="#DFDFDF"/>
<stop offset="1" stop-color="#959595"/>
</linearGradient>
<radialGradient id="paint13_radial_758_1400" cx="0" cy="0" r="1" gradientUnits="userSpaceOnUse" gradientTransform="translate(106.484 72.8434) rotate(90) scale(8.84335 8.23512)">
<stop stop-color="#FFDC61"/>
<stop offset="1" stop-color="#C79B00"/>
</radialGradient>
<radialGradient id="paint14_radial_758_1400" cx="0" cy="0" r="1" gradientUnits="userSpaceOnUse" gradientTransform="translate(124.116 78.0728) rotate(90) scale(6.37326 5.93492)">
<stop stop-color="#FFDC61"/>
<stop offset="1" stop-color="#C79B00"/>
</radialGradient>
<radialGradient id="paint15_radial_758_1400" cx="0" cy="0" r="1" gradientUnits="userSpaceOnUse" gradientTransform="translate(126.882 94.6835) rotate(90) scale(4.42225 4.1181)">
<stop stop-color="#FFDC61"/>
<stop offset="1" stop-color="#C79B00"/>
</radialGradient>
</defs>
</svg>
